# xmcd
#
# Track frame offsets:
#	150
#	8918
#	20933
#	32423
#	47521
#	64374
#	75227
#	88030
#	103833
#	112901
#	124894
#
# Disc length: 1829 seconds
#
# Revision: 1
# Processed by: cddbd v1.5.2PL0 Copyright (c) Steve Scherf et al.
# Submitted via: audiograbber 1.83.01
#
DISCID=8507230b
DTITLE=Flatt and Scruggs - Final Fling
DYEAR=1970
DGENRE=Country
TTITLE0=Honey, Just Allow Me One More Chance
TTITLE1=Nashville Skyline Rag
TTITLE2=I Walk The Line
TTITLE3=Tonight Will Be Fine
TTITLE4=Boy Named Sue
TTITLE5=Maggie's Farm
TTITLE6=Wanted Man
TTITLE7=Ruby Don't Take Your Love To Town
TTITLE8=One More Night
TTITLE9=Girl From The North Country
TTITLE10=One Too Many Mornings
EXTD=
EXTT0=
EXTT1=
EXTT2=
EXTT3=
EXTT4=
EXTT5=
EXTT6=
EXTT7=
EXTT8=
EXTT9=
EXTT10=
PLAYORDER=
